HIERARCHY
ROOT Root
{
	OFFSET 0.00000 0.00000 0.00000
	CHANNELS 6 Xposition Yposition Zposition Zrotation Xrotation Yrotation
	JOINT Hip
	{
		OFFSET 0 0 0	
		CHANNELS 3 Zrotation Xrotation Yrotation
		JOINT Tummy
		{
			OFFSET 0 0.04 0	
			CHANNELS 3 Zrotation Xrotation Yrotation
			JOINT ChestBottom
			{
				OFFSET 0 0.194 0	
				CHANNELS 3 Zrotation Xrotation Yrotation
				JOINT ChestTop
				{
					OFFSET 0 0.166 0	
					CHANNELS 3 Zrotation Xrotation Yrotation
					JOINT LeftCollar
					{
						OFFSET 0 0.1 0	
						CHANNELS 3 Zrotation Xrotation Yrotation
						JOINT LeftUpperArm
						{
							OFFSET 0.156 -0.02 0.03	
							CHANNELS 3 Zrotation Xrotation Yrotation
							JOINT LeftForeArm
							{
								OFFSET 0.035 -0.27 -0.01	
								CHANNELS 3 Zrotation Xrotation Yrotation
								JOINT LeftHand
								{
									OFFSET 0.01 -0.27 0.01	
									CHANNELS 3 Zrotation Xrotation Yrotation
									End Site
									{
										OFFSET 0 -0.15 0
									}
								}
							}
						}
					}
					JOINT RightCollar
					{
						OFFSET 0 0.1 0	
						CHANNELS 3 Zrotation Xrotation Yrotation
						JOINT RightUpperArm
						{
							OFFSET -0.156 -0.02 0.03	
							CHANNELS 3 Zrotation Xrotation Yrotation
							JOINT RightForeArm
							{
								OFFSET -0.035 -0.27 -0.01	
								CHANNELS 3 Zrotation Xrotation Yrotation
								JOINT RightHand
								{
									OFFSET -0.01 -0.27 0.01	
									CHANNELS 3 Zrotation Xrotation Yrotation
									End Site
									{
										OFFSET 0 -0.15 0
									}
								}
							}
						}
					}
					JOINT Neck
					{
						OFFSET 0 0.1 0	
						CHANNELS 3 Zrotation Xrotation Yrotation
						JOINT Head
						{
							OFFSET 0 0.127 0.03	
							CHANNELS 3 Zrotation Xrotation Yrotation
							End Site
							{
								OFFSET 0 0.127 0.03
							}
						}
					}
				}
			}
		}
	}
	JOINT LeftHip
	{
		OFFSET 0 0 0	
		CHANNELS 3 Zrotation Xrotation Yrotation
		JOINT LeftThigh
		{
			OFFSET 0.088 -0.06 0	
			CHANNELS 3 Zrotation Xrotation Yrotation
			JOINT LeftLowerLeg
			{
				OFFSET 0 -0.39 0.02	
				CHANNELS 3 Zrotation Xrotation Yrotation
				JOINT LeftFootTop
				{
					OFFSET 0 -0.43 -0.02	
					CHANNELS 3 Zrotation Xrotation Yrotation
					JOINT LeftFootFront
					{
						OFFSET 0 -0.07 0.085	
						CHANNELS 3 Zrotation Xrotation Yrotation
						End Site
						{
							OFFSET 0 -0.005 0.09
						}
					}
				}
				JOINT LeftHeel
				{
					OFFSET 0 -0.43 -0.02	
					CHANNELS 3 Zrotation Xrotation Yrotation
					End Site
					{
						OFFSET 0 -0.075 -0.05
					}
				}
			}
		}
	}
	JOINT RightHip
	{
		OFFSET 0 0 0	
		CHANNELS 3 Zrotation Xrotation Yrotation
		JOINT RightThigh
		{
			OFFSET -0.088 -0.06 0	
			CHANNELS 3 Zrotation Xrotation Yrotation
			JOINT RightLowerLeg
			{
				OFFSET 0 -0.39 0.02	
				CHANNELS 3 Zrotation Xrotation Yrotation
				JOINT RightFootTop
				{
					OFFSET 0 -0.43 -0.02	
					CHANNELS 3 Zrotation Xrotation Yrotation
					JOINT RightFootFront
					{
						OFFSET 0 -0.07 0.085	
						CHANNELS 3 Zrotation Xrotation Yrotation
						End Site
						{
							OFFSET 0 -0.005 0.09
						}
					}
				}
				JOINT RightHeel
				{
					OFFSET 0 -0.43 -0.02	
					CHANNELS 3 Zrotation Xrotation Yrotation
					End Site
					{
						OFFSET 0 -0.075 -0.05
					}
				}
			}
		}
	}
}
MOTION
Frames: 27
Frame Time: 0.05
0 0.955 0 -0 0 -0 3.5964 -15.838 -178.16 -7.5541 14.235 32.217 -7.5541 14.235 32.217 -5.7891 12.278 26.841 -0 0 -0 8.6651 -21.451 -32.43 -50.825 -30.425 -50.586 -5.3467 -73.031 -134.09 -0 0 -0 1.9438 -51.238 -10.372 41.62 -70.838 -6.0572 -87.938 -11.943 8.0123 10.208 -26.042 -31.489 10.208 -26.042 -31.489 -0 0 -0 -0 0 -0 -0 0 -0 -0 0 -0 -0 0 -0 -0 0 -0 -0 0 -0 -0 0 -0 -0 0 -0 -0 0 -0 -0 0 -0 -0 0 -0 
0 0.955 0 -0 0 -0 3.7056 -15.718 -178.41 -7.5322 14.196 32.104 -7.5322 14.196 32.104 -5.7742 12.243 26.748 -0 0 -0 9.3454 -20.88 -32.604 -51.145 -31.445 -50.925 -28.936 -80.94 -150.89 -0 0 -0 2.9117 -50.447 -6.7877 41.529 -71.945 -4.388 -89.385 -10.343 6.8107 10.341 -26.045 -31.325 10.341 -26.045 -31.325 -0 0 -0 -0 0 -0 -0 0 -0 -0 0 -0 -0 0 -0 -0 0 -0 -0 0 -0 -0 0 -0 -0 0 -0 -0 0 -0 -0 0 -0 -0 0 -0 
0 0.955 0 -0 0 -0 4.161 -16.071 -178.36 -7.4551 14.027 31.98 -7.455 14.027 31.98 -5.7188 12.096 26.649 -0 0 -0 9.5386 -20.134 -32.445 -51.358 -31.607 -51.52 -70.006 -83.891 172.66 -0 0 -0 2.6919 -49.752 -4.9553 32.838 -73.009 -12.79 -87.644 -10.188 6.3844 10.488 -26.22 -31.21 10.488 -26.22 -31.21 -0 0 -0 -0 0 -0 -0 0 -0 -0 0 -0 -0 0 -0 -0 0 -0 -0 0 -0 -0 0 -0 -0 0 -0 -0 0 -0 -0 0 -0 -0 0 -0 
0 0.955 0 -0 0 -0 4.8561 -16.385 -177.65 -7.4106 14.223 31.621 -7.4106 14.223 31.621 -5.6788 12.256 26.345 -0 0 -0 9.1453 -19.892 -31.691 -51.425 -31.298 -52.767 -76.31 -84.033 168.17 -0 0 -0 1.842 -50.624 -4.5304 17.85 -71.477 -29.434 -82.465 -12.222 6.5217 10.506 -26.89 -30.697 10.506 -26.89 -30.697 -0 0 -0 -0 0 -0 -0 0 -0 -0 0 -0 -0 0 -0 -0 0 -0 -0 0 -0 -0 0 -0 -0 0 -0 -0 0 -0 -0 0 -0 -0 0 -0 
0 0.955 0 -0 0 -0 4.9409 -16.961 -176.45 -7.5957 14.529 30.823 -7.5957 14.529 30.823 -5.8341 12.512 25.666 -0 0 -0 9.0191 -19.652 -30.515 -51.413 -31.587 -53.715 -30.56 -81.383 -147.76 -0 0 -0 2.3167 -53.317 -5.2895 4.9308 -64.224 -45.538 -73.588 -16.971 8.0979 10.631 -27.634 -29.744 10.631 -27.634 -29.744 -0 0 -0 -0 0 -0 -0 0 -0 -0 0 -0 -0 0 -0 -0 0 -0 -0 0 -0 -0 0 -0 -0 0 -0 -0 0 -0 -0 0 -0 -0 0 -0 
0 0.955 0 -0 0 -0 4.6177 -18.046 -174.71 -8.014 14.412 30.042 -8.014 14.412 30.042 -6.2028 12.42 25.008 -0 0 -0 9.7364 -19.18 -29.48 -51.583 -31.682 -54.306 -8.5338 -71.035 -127.14 -0 0 -0 4.5536 -56.466 -7.5451 -0.63496 -53.662 -54.609 -63.227 -23.351 10.931 11.052 -28.185 -29.239 11.052 -28.185 -29.239 -0 0 -0 -0 0 -0 -0 0 -0 -0 0 -0 -0 0 -0 -0 0 -0 -0 0 -0 -0 0 -0 -0 0 -0 -0 0 -0 -0 0 -0 -0 0 -0 
0 0.955 0 -0 0 -0 4.4464 -18.874 -172.72 -8.7397 14.588 29.32 -8.7397 14.588 29.32 -6.8163 12.585 24.388 -0 0 -0 10.703 -19.994 -27.011 -52.195 -30.599 -55.526 7.4121 -55.762 -117.21 -0 0 -0 6.797 -59.796 -8.0136 -2.9731 -43.715 -61.266 -53.447 -29.421 14.081 11.738 -29.295 -28.343 11.738 -29.295 -28.343 -0 0 -0 -0 0 -0 -0 0 -0 -0 0 -0 -0 0 -0 -0 0 -0 -0 0 -0 -0 0 -0 -0 0 -0 -0 0 -0 -0 0 -0 -0 0 -0 
0 0.955 0 -0 0 -0 4.3339 -19.412 -170.76 -9.3067 14.98 28.701 -9.3067 14.98 28.701 -7.2862 12.927 23.852 -0 0 -0 11.85 -21.13 -23.606 -53.241 -29.207 -56.972 19.212 -39.331 -115.98 -0 0 -0 6.5999 -60.471 -6.2409 -6.2516 -37.011 -65.853 -45.637 -29.958 14.636 12.328 -30.204 -27.119 12.328 -30.204 -27.119 -0 0 -0 -0 0 -0 -0 0 -0 -0 0 -0 -0 0 -0 -0 0 -0 -0 0 -0 -0 0 -0 -0 0 -0 -0 0 -0 -0 0 -0 -0 0 -0 
0 0.955 0 -0 0 -0 4.2759 -20.021 -168.61 -10.338 15.308 28.597 -10.338 15.308 28.597 -8.1398 13.237 23.739 -0 0 -0 14.375 -23.735 -21.153 -54.408 -28.411 -57.191 22.609 -31.203 -114.57 -0 0 -0 6.8445 -61.382 -5.7456 -7.197 -35.202 -68.643 -41.215 -29.883 15.706 13.455 -31.42 -26.209 13.455 -31.42 -26.209 -0 0 -0 -0 0 -0 -0 0 -0 -0 0 -0 -0 0 -0 -0 0 -0 -0 0 -0 -0 0 -0 -0 0 -0 -0 0 -0 -0 0 -0 -0 0 -0 
0 0.955 0 -0 0 -0 4.2127 -20.758 -166.24 -11.018 15.647 28.408 -11.018 15.647 28.408 -8.6992 13.543 23.56 -0 0 -0 16.223 -25.869 -20.302 -54.833 -28.971 -56.108 22.931 -28.819 -117.77 -0 0 -0 8.69 -62.602 -8.152 -4.7602 -36.359 -67.472 -39.158 -30.998 18.668 14.061 -32.334 -25.796 14.061 -32.334 -25.796 -0 0 -0 -0 0 -0 -0 0 -0 -0 0 -0 -0 0 -0 -0 0 -0 -0 0 -0 -0 0 -0 -0 0 -0 -0 0 -0 -0 0 -0 -0 0 -0 
0 0.955 0 -0 0 -0 4.2162 -21.851 -164.33 -10.813 15.959 27.984 -10.813 15.959 27.984 -8.5213 13.792 23.2 -0 0 -0 15.281 -26.365 -20.631 -53.92 -29.508 -54.886 21.932 -28.135 -121.18 -0 0 -0 8.7437 -62.732 -11.498 -2.0935 -37.611 -65.054 -38.353 -32.304 21.186 13.295 -32.725 -25.912 13.295 -32.725 -25.912 -0 0 -0 -0 0 -0 -0 0 -0 -0 0 -0 -0 0 -0 -0 0 -0 -0 0 -0 -0 0 -0 -0 0 -0 -0 0 -0 -0 0 -0 -0 0 -0 
0 0.955 0 -0 0 -0 4.5657 -22.61 -163.06 -10.113 15.922 27.813 -10.113 15.922 27.813 -7.9393 13.735 23.071 -0 0 -0 13.573 -25.784 -21.486 -52.751 -29.201 -54.135 22.364 -27.683 -123.68 -0 0 -0 6.4686 -61.657 -13.851 -1.7075 -39.091 -65.459 -38.78 -33.169 22.444 12.15 -32.726 -26.386 12.15 -32.726 -26.386 -0 0 -0 -0 0 -0 -0 0 -0 -0 0 -0 -0 0 -0 -0 0 -0 -0 0 -0 -0 0 -0 -0 0 -0 -0 0 -0 -0 0 -0 -0 0 -0 
0 0.955 0 -0 0 -0 5.0207 -22.735 -162.25 -9.654 16.355 28.023 -9.654 16.355 28.023 -7.5334 14.087 23.243 -0 0 -0 11.765 -26.675 -22.738 -52.46 -29.029 -53.597 21.309 -28.065 -127.09 -0 0 -0 1.7658 -62.268 -16.462 -2.8792 -40.848 -66.774 -40.511 -32.301 22.608 11.138 -33.412 -26.65 11.138 -33.412 -26.65 -0 0 -0 -0 0 -0 -0 0 -0 -0 0 -0 -0 0 -0 -0 0 -0 -0 0 -0 -0 0 -0 -0 0 -0 -0 0 -0 -0 0 -0 -0 0 -0 
0 0.955 0 -0 0 -0 5.4974 -22.819 -161.92 -9.5385 16.653 28.447 -9.5385 16.653 28.447 -7.4164 14.34 23.591 -0 0 -0 10.683 -28.073 -24.481 -52.493 -29.423 -52.548 18.364 -29.337 -128.38 -0 0 -0 -3.1448 -63.945 -20.717 -3.3142 -43.921 -66.411 -43.731 -29.962 23.351 10.362 -34.228 -26.954 10.362 -34.228 -26.954 -0 0 -0 -0 0 -0 -0 0 -0 -0 0 -0 -0 0 -0 -0 0 -0 -0 0 -0 -0 0 -0 -0 0 -0 -0 0 -0 -0 0 -0 -0 0 -0 
0 0.955 0 -0 0 -0 5.9272 -22.807 -162.07 -9.3318 16.476 28.769 -9.3318 16.476 28.769 -7.2445 14.188 23.87 -0 0 -0 10.275 -28.403 -26.212 -51.99 -30.131 -51.138 14.208 -33.639 -129.72 -0 0 -0 -6.4054 -65.466 -24.598 -2.625 -48.248 -63.613 -48.961 -26.68 23.966 9.7115 -34.462 -27.414 9.7115 -34.462 -27.414 -0 0 -0 -0 0 -0 -0 0 -0 -0 0 -0 -0 0 -0 -0 0 -0 -0 0 -0 -0 0 -0 -0 0 -0 -0 0 -0 -0 0 -0 -0 0 -0 
0 0.955 0 -0 0 -0 6.3919 -22.707 -162.47 -9.2071 16.1 29.278 -9.2071 16.1 29.278 -7.1463 13.874 24.307 -0 0 -0 10.186 -28.592 -28.46 -51.153 -30.851 -49.922 9.8602 -41.549 -131.47 -0 0 -0 -9.9707 -67.21 -28.873 -1.185 -53.056 -58.466 -55.941 -22.46 23.068 9.2013 -34.622 -28.269 9.2013 -34.622 -28.269 -0 0 -0 -0 0 -0 -0 0 -0 -0 0 -0 -0 0 -0 -0 0 -0 -0 0 -0 -0 0 -0 -0 0 -0 -0 0 -0 -0 0 -0 -0 0 -0 
0 0.955 0 -0 0 -0 6.7642 -22.323 -163.12 -9.02 15.904 29.535 -9.02 15.904 29.535 -6.993 13.705 24.531 -0 0 -0 9.9083 -28.685 -30.13 -50.493 -31.455 -49.144 4.4117 -51.529 -132.41 -0 0 -0 -13.36 -69.028 -30.702 0.39946 -57.452 -51.993 -63.696 -17.041 20.931 8.9105 -34.841 -28.589 8.9105 -34.841 -28.589 -0 0 -0 -0 0 -0 -0 0 -0 -0 0 -0 -0 0 -0 -0 0 -0 -0 0 -0 -0 0 -0 -0 0 -0 -0 0 -0 -0 0 -0 -0 0 -0 
0 0.955 0 -0 0 -0 6.9687 -21.55 -163.8 -8.8003 15.977 29.711 -8.8003 15.977 29.711 -6.8025 13.762 24.68 -0 0 -0 9.5483 -28.933 -31.619 -50.305 -32.002 -48.809 -3.2038 -61.9 -133.64 -0 0 -0 -16.547 -70.636 -30.8 2.1032 -61.194 -45.032 -71.093 -10.934 18.543 8.685 -35.106 -28.665 8.685 -35.106 -28.665 -0 0 -0 -0 0 -0 -0 0 -0 -0 0 -0 -0 0 -0 -0 0 -0 -0 0 -0 -0 0 -0 -0 0 -0 -0 0 -0 -0 0 -0 -0 0 -0 
0 0.955 0 -0 0 -0 7.0244 -20.83 -164.57 -8.4123 15.85 29.728 -8.4123 15.85 29.728 -6.4823 13.641 24.705 -0 0 -0 9.2729 -28.17 -32.368 -50.337 -31.98 -49.083 -14.845 -71.961 -138.34 -0 0 -0 -17.902 -70.998 -28.994 4.8639 -63.829 -37.825 -77.098 -5.3679 16.559 8.4674 -34.791 -28.739 8.4674 -34.791 -28.739 -0 0 -0 -0 0 -0 -0 0 -0 -0 0 -0 -0 0 -0 -0 0 -0 -0 0 -0 -0 0 -0 -0 0 -0 -0 0 -0 -0 0 -0 -0 0 -0 
0 0.955 0 -0 0 -0 6.714 -20.265 -165.11 -8.2654 15.927 29.252 -8.2654 15.927 29.252 -6.3646 13.695 24.307 -0 0 -0 9.0747 -27.308 -31.42 -50.199 -31.766 -50.055 -36.479 -79.687 -153.59 -0 0 -0 -17.967 -71.728 -25.9 7.0696 -64.929 -32.295 -80.672 -0.67653 15.265 8.7537 -34.475 -28.084 8.7537 -34.475 -28.084 -0 0 -0 -0 0 -0 -0 0 -0 -0 0 -0 -0 0 -0 -0 0 -0 -0 0 -0 -0 0 -0 -0 0 -0 -0 0 -0 -0 0 -0 -0 0 -0 
0 0.955 0 -0 0 -0 5.9563 -20.414 -165.15 -8.3443 15.936 28.153 -8.3443 15.936 28.153 -6.4503 13.692 23.386 -0 0 -0 9.4968 -26.093 -28.736 -50.497 -31.609 -51.505 -86.385 -83.115 162.06 -0 0 -0 -15.688 -72.463 -21.093 6.358 -64.808 -30.645 -81.245 3.1169 15.094 9.3416 -34.083 -26.883 9.3416 -34.083 -26.883 -0 0 -0 -0 0 -0 -0 0 -0 -0 0 -0 -0 0 -0 -0 0 -0 -0 0 -0 -0 0 -0 -0 0 -0 -0 0 -0 -0 0 -0 -0 0 -0 
0 0.955 0 -0 0 -0 5.4423 -20.742 -165.04 -8.35 15.831 27.125 -8.35 15.831 27.125 -6.478 13.592 22.528 -0 0 -0 10.252 -24.906 -25.584 -51.556 -31.346 -52.853 -124.82 -80.304 129.59 -0 0 -0 -12.877 -72.724 -16.988 2.2092 -63.798 -33.517 -78.984 5.306 15.986 9.6469 -33.76 -25.803 9.6469 -33.76 -25.803 -0 0 -0 -0 0 -0 -0 0 -0 -0 0 -0 -0 0 -0 -0 0 -0 -0 0 -0 -0 0 -0 -0 0 -0 -0 0 -0 -0 0 -0 -0 0 -0 
0 0.955 0 -0 0 -0 5.1112 -20.668 -164.82 -8.1841 15.759 26.378 -8.1841 15.759 26.378 -6.3553 13.517 21.909 -0 0 -0 10.853 -23.602 -22.858 -52.327 -31.111 -53.729 -128.47 -77.961 131.79 -0 0 -0 -9.0583 -72.603 -13.189 -4.3812 -61.22 -40.368 -74.362 4.7798 17.027 9.5816 -33.31 -25.029 9.5816 -33.31 -25.029 -0 0 -0 -0 0 -0 -0 0 -0 -0 0 -0 -0 0 -0 -0 0 -0 -0 0 -0 -0 0 -0 -0 0 -0 -0 0 -0 -0 0 -0 -0 0 -0 
0 0.955 0 -0 0 -0 4.6571 -20.602 -164.46 -8.4343 15.934 25.993 -8.4343 15.934 25.993 -6.5653 13.668 21.577 -0 0 -0 11.712 -23.537 -20.725 -52.888 -30.809 -54.415 -110.26 -78.028 152.43 -0 0 -0 -3.8189 -73.811 -9.7275 -10.766 -56.244 -48.592 -67.777 1.2255 18.692 9.7474 -33.548 -24.494 9.7474 -33.548 -24.494 -0 0 -0 -0 0 -0 -0 0 -0 -0 0 -0 -0 0 -0 -0 0 -0 -0 0 -0 -0 0 -0 -0 0 -0 -0 0 -0 -0 0 -0 -0 0 -0 
0 0.955 0 -0 0 -0 4.3221 -20.445 -164.04 -8.6916 16.013 26.184 -8.6916 16.013 26.184 -6.7745 13.744 21.731 -0 0 -0 12.782 -23.778 -20.208 -53.161 -30.687 -54.587 -67.67 -76.856 -166.13 -0 0 -0 -0.85021 -75.063 -9.5221 -14.324 -49.111 -55.692 -60.275 -4.4574 20.412 9.7613 -34.09 -24.842 9.7613 -34.09 -24.842 -0 0 -0 -0 0 -0 -0 0 -0 -0 0 -0 -0 0 -0 -0 0 -0 -0 0 -0 -0 0 -0 -0 0 -0 -0 0 -0 -0 0 -0 -0 0 -0 
0 0.955 0 -0 0 -0 4.2108 -20.306 -163.51 -8.7911 16.178 26.47 -8.7911 16.178 26.47 -6.8463 13.89 21.965 -0 0 -0 13.172 -24.31 -20.327 -53.124 -30.546 -54.122 -33.962 -69.652 -136.93 -0 0 -0 -1.2356 -75.54 -12.087 -15.598 -42.322 -60.09 -52.944 -9.3435 21.399 9.5432 -34.749 -25.512 9.5432 -34.749 -25.512 -0 0 -0 -0 0 -0 -0 0 -0 -0 0 -0 -0 0 -0 -0 0 -0 -0 0 -0 -0 0 -0 -0 0 -0 -0 0 -0 -0 0 -0 -0 0 -0 
0 0.955 0 -0 0 -0 4.1895 -19.951 -162.91 -9.0611 16.741 26.89 -9.0611 16.741 26.89 -7.0427 14.377 22.296 -0 0 -0 13.144 -26.159 -20.969 -52.626 -30.756 -53.373 -20.425 -61.228 -126.3 -0 0 -0 -5.7934 -76.041 -17.295 -15.892 -37.015 -64.257 -46.821 -13.563 22.146 9.3712 -35.926 -26.248 9.3712 -35.926 -26.248 -0 0 -0 -0 0 -0 -0 0 -0 -0 0 -0 -0 0 -0 -0 0 -0 -0 0 -0 -0 0 -0 -0 0 -0 -0 0 -0 -0 0 -0 -0 0 -0 
